<?xml version="1.0" encoding="utf-8"?>
<!-- Generator: Adobe Illustrator 20.0.0, SVG Export Plug-In . SVG Version: 6.00 Build 0)  -->
<svg version="1.1" id="Logo" xmlns="http://www.w3.org/2000/svg" xmlns:xlink="http://www.w3.org/1999/xlink" x="0px" y="0px"
	 viewBox="0 0 416.9799805 283.4899902" style="enable-background:new 0 0 416.9799805 283.4899902;" xml:space="preserve">
<style type="text/css">
	.st0{clip-path:url(#SVGID_2_);fill:url(#SVGID_3_);}
	.st1{clip-path:url(#SVGID_5_);fill:url(#SVGID_6_);}
	.st2{clip-path:url(#SVGID_8_);fill:url(#SVGID_9_);}
	.st3{clip-path:url(#SVGID_11_);fill:url(#SVGID_12_);}
	.st4{clip-path:url(#SVGID_14_);fill:url(#SVGID_15_);}
	.st5{clip-path:url(#SVGID_14_);fill:url(#SVGID_16_);}
	.st6{fill:#231815;}
	.st7{clip-path:url(#SVGID_18_);fill:url(#SVGID_19_);}
	.st8{clip-path:url(#SVGID_21_);fill:url(#SVGID_22_);}
	.st9{clip-path:url(#SVGID_24_);fill:url(#SVGID_25_);}
	.st10{clip-path:url(#SVGID_27_);fill:url(#SVGID_28_);}
	.st11{clip-path:url(#SVGID_30_);fill:url(#SVGID_31_);}
</style>
<rect width="416.9799805" height="283.4899902"/>
<g>
	<g>
		<defs>
			<path id="SVGID_1_" d="M56.3620148,112.1990051c0,24.0610046,39.617981,48.2619934,89.8059998,61.4790039
				c-30.6119995-3.2130127-114.7570038-24.0550232-114.7570038-61.4790039c0-25.5870056,56.5439911-52.1860046,94.451004-63.451004
				C91.8130035,64.0639954,56.3589935,87.1119995,56.3620148,112.1990051"/>
		</defs>
		<clipPath id="SVGID_2_">
			<use xlink:href="#SVGID_1_"  style="overflow:visible;"/>
		</clipPath>
		
			<linearGradient id="SVGID_3_" gradientUnits="userSpaceOnUse" x1="-87.423996" y1="563.7290039" x2="-86.423996" y2="563.7290039" gradientTransform="matrix(0 -124.9300003 -124.9300003 0 70515.453125 -10748.2021484)">
			<stop  offset="0" style="stop-color:#9C702F"/>
			<stop  offset="0.1122053" style="stop-color:#A4792F"/>
			<stop  offset="0.295097" style="stop-color:#B9912E"/>
			<stop  offset="0.5" style="stop-color:#D7B42D"/>
			<stop  offset="0.5142911" style="stop-color:#D4B02D"/>
			<stop  offset="0.6382529" style="stop-color:#BB932E"/>
			<stop  offset="0.7615331" style="stop-color:#AA7F2F"/>
			<stop  offset="0.8828975" style="stop-color:#A0722F"/>
			<stop  offset="1" style="stop-color:#9C6E2F"/>
		</linearGradient>
		<rect x="31.4110031" y="48.7480011" class="st0" width="114.7570114" height="124.9299927"/>
	</g>
	<g>
		<defs>
			<path id="SVGID_4_" d="M68.5950165,112.1990051c0,36.9920044,90.7269897,65.394989,170.3179932,79.0969849
				c-82.3600159-23.4639893-145.1610107-49.7989807-145.1610107-79.0969849
				c0-31.5740051,38.5209961-59.7670135,85.6230164-80.3470001c0,0-110.7780151,32.4549866-110.7780151,80.3470001H68.5950165"/>
		</defs>
		<clipPath id="SVGID_5_">
			<use xlink:href="#SVGID_4_"  style="overflow:visible;"/>
		</clipPath>
		
			<linearGradient id="SVGID_6_" gradientUnits="userSpaceOnUse" x1="-87.4257278" y1="563.7324219" x2="-86.4257278" y2="563.7324219" gradientTransform="matrix(-0.000007 -159.4440002 -159.4440002 0.000007 90037.5078125 -13748.2158203)">
			<stop  offset="0" style="stop-color:#9C702F"/>
			<stop  offset="0.1122053" style="stop-color:#A4792F"/>
			<stop  offset="0.295097" style="stop-color:#B9912E"/>
			<stop  offset="0.5" style="stop-color:#D7B42D"/>
			<stop  offset="0.5142911" style="stop-color:#D4B02D"/>
			<stop  offset="0.6382529" style="stop-color:#BB932E"/>
			<stop  offset="0.7615331" style="stop-color:#AA7F2F"/>
			<stop  offset="0.8828975" style="stop-color:#A0722F"/>
			<stop  offset="1" style="stop-color:#9C6E2F"/>
		</linearGradient>
		<rect x="68.594986" y="31.8519821" class="st1" width="170.3179626" height="159.4440002"/>
	</g>
	<g>
		<defs>
			<path id="SVGID_7_" d="M359.7369995,112.1990051c0,24.0610046-39.617981,48.2619934-89.8049927,61.4790039
				c30.6090088-3.2130127,114.7559814-24.0550232,114.7559814-61.4790039c0-25.5870056-56.5429688-52.1860046-94.4509888-63.451004
				C324.2839966,64.0639954,359.7399902,87.1119995,359.7369995,112.1990051"/>
		</defs>
		<clipPath id="SVGID_8_">
			<use xlink:href="#SVGID_7_"  style="overflow:visible;"/>
		</clipPath>
		
			<linearGradient id="SVGID_9_" gradientUnits="userSpaceOnUse" x1="-87.423996" y1="563.7609863" x2="-86.423996" y2="563.7609863" gradientTransform="matrix(0 -124.9300003 124.9300003 0 -70103.3515625 -10748.2021484)">
			<stop  offset="0" style="stop-color:#9C702F"/>
			<stop  offset="0.1122053" style="stop-color:#A4792F"/>
			<stop  offset="0.295097" style="stop-color:#B9912E"/>
			<stop  offset="0.5" style="stop-color:#D7B42D"/>
			<stop  offset="0.5142911" style="stop-color:#D4B02D"/>
			<stop  offset="0.6382529" style="stop-color:#BB932E"/>
			<stop  offset="0.7615331" style="stop-color:#AA7F2F"/>
			<stop  offset="0.8828975" style="stop-color:#A0722F"/>
			<stop  offset="1" style="stop-color:#9C6E2F"/>
		</linearGradient>
		<rect x="269.9319763" y="48.7479858" class="st2" width="114.756012" height="124.9300079"/>
	</g>
	<g>
		<defs>
			<path id="SVGID_10_" d="M348.3519897,112.1990051c0,36.9920044-90.7269897,65.394989-170.3179779,79.0969849
				c82.3619843-23.4639893,145.1609955-49.7989807,145.1609955-79.0969849
				c0-31.5740051-38.5230103-59.7670135-85.6230011-80.3470001c0,0,110.7779694,32.4549866,110.7779694,80.3470001H348.3519897"/>
		</defs>
		<clipPath id="SVGID_11_">
			<use xlink:href="#SVGID_10_"  style="overflow:visible;"/>
		</clipPath>
		
			<linearGradient id="SVGID_12_" gradientUnits="userSpaceOnUse" x1="-87.4257355" y1="563.7575073" x2="-86.4257355" y2="563.7575073" gradientTransform="matrix(0.000007 -159.4440002 159.4440002 0.000007 -89624.5625 -13748.2167969)">
			<stop  offset="0" style="stop-color:#9C702F"/>
			<stop  offset="0.1122053" style="stop-color:#A4792F"/>
			<stop  offset="0.295097" style="stop-color:#B9912E"/>
			<stop  offset="0.5" style="stop-color:#D7B42D"/>
			<stop  offset="0.5142911" style="stop-color:#D4B02D"/>
			<stop  offset="0.6382529" style="stop-color:#BB932E"/>
			<stop  offset="0.7615331" style="stop-color:#AA7F2F"/>
			<stop  offset="0.8828975" style="stop-color:#A0722F"/>
			<stop  offset="1" style="stop-color:#9C6E2F"/>
		</linearGradient>
		<rect x="178.0339508" y="31.8519821" class="st3" width="170.3180542" height="159.4440002"/>
	</g>
	<g>
		<defs>
			<path id="SVGID_13_" d="M211.5359955,93.4420013c0.3770142-0.6150055,0.5030212-1.1190033,0.2090149-1.5690002
				c-0.3139954-0.4820099-0.7820129-0.4250031-2.0079956-0.4440002h-7.5190125
				c-1.7709961,0-3.7189941,0.3390045-4.9719849,1.7339935c-1.0770264,1.2120056-1.8540039,2.6600037-2.2620239,3.5220032
				l-1.3249817-0.3529968c0.572998-1.9089966,1.0310059-3.5720062,1.8309937-6.6340027l24.4259949-0.003006l0.5270081,0.8040009
				c-0.9670105,1.5490112-15.1279907,24.3420105-17.9370117,28.8280029
				c-0.3629761,0.5830078-1.0799866,1.7139893-0.5579834,2.5769958c0.3670044,0.6020203,1.2319946,0.7200012,2.1640015,0.7200012
				c1.3559875,0,3.2980042,0,6.9549866,0c1.2929993,0,3.45401-0.1959839,5.1279907-1.4150085
				c1.4170227-1.0289917,2.4150085-2.5379944,3.3010254-4.5649719l1.2729797,0.3449707
				c-0.776001,2.6020203-1.7729797,5.7810059-2.3429871,7.4130249H193.279007l-0.5270081-0.8420105
				C193.6649933,122.0920105,210.5749969,95.0079956,211.5359955,93.4420013 M134.673996,91.2839966
				c5.0710144,0,7.3480225,3.8740082,7.3480225,8.0460052c0,3.5309906-0.9910278,5.352005-2.3670044,6.4420013
				c-1.5220032,1.1319885-3.2409973,1.3529968-5.1549988,1.3529968c-2.6390076,0-2.303009-0.0029907-2.6390076-0.0029907
				c-0.7420044,0-1.1080017-0.3970032-1.1080017-1.3300171c0,0,0-11.1869965,0-12.8479919
				C130.753006,91.3619995,131.9539948,91.2839966,134.673996,91.2839966z M130.753006,110.0180054
				c0-0.9330139,0.3659973-1.3300171,1.1080017-1.3300171c0.4989929,0,0.9639893,0,1.6669922,0
				c0.9859924,0,1.3250122,0.5280151,2.0970154,1.6750183c1.6029968,2.3509827,3.7269897,5.9579773,5.0820007,7.8729858
				c3.6929932,5.28302,7.6799927,6.5780029,12.1219788,6.5780029c0.9970093,0,1.8040161-0.1229858,2.2940063-0.2510071v-0.7649841
				c-1.427002-0.1010132-2.769989-0.6419983-3.6439819-1.4190063c-3.5540161-3.0159912-6.7090149-7.7210083-10.8840027-14.4859924
				c-0.2709961-0.382019-0.1690063-0.4230042,0.2359924-0.5450134c2.8659973-0.8670044,7.3890076-3.21698,7.3890076-8.7949982
				c0-4.394989-2.5910034-6.4149933-5.3269958-7.6719971c-2.4670105-1.1309967-5.4820251-1.1829987-8.6850281-1.1829987
				c-5.1259766,0-12.8799744,0-12.8799744,0v1.2870026l1.2529907,0.1920013
				c2.2510071,0.3410034,2.5090027,1.2419891,2.5090027,5.772995v20.1909943c0,4.5310059-0.2579956,5.0690002-2.5090027,5.65802
				l-1.2529907,0.3069763v1.2960205h13.1849976v-1.2960205l-1.2530212-0.3069763
				c-2.2489929-0.5890198-2.5069885-1.1270142-2.5069885-5.65802V110.0180054z M168.6380157,117.1409912
				c0,4.5310059-0.2610168,5.0690002-2.507019,5.65802l-1.2539978,0.3069763v1.2960205h13.5849915v-1.2960205l-1.2559814-0.3069763
				c-2.2480164-0.5890198-2.5079956-1.1270142-2.5079956-5.65802V96.9499969c0-4.5310059,0.2599792-5.4319916,2.5079956-5.772995
				l1.2559814-0.1849976V89.697998h-13.5849915v1.2870026l1.2539978,0.1920013
				c2.2460022,0.3410034,2.507019,1.2419891,2.507019,5.772995V117.1409912z M259.2330322,117.428009l-9.4540253-27.730011
				h-4.0130005c0,0-10.8699951,28.2659912-11.7799988,30.6600037c-0.3429871,0.8909912-0.8980103,1.8980103-2.4949951,2.2900085
				c-1.0939941,0.269989-2.3500061,0.4579773-2.3500061,0.4579773v1.2960205h10.5859985v-1.2960205l-1.1929932-0.1380005
				c-1.7900085-0.2049866-2.5830078-0.164978-1.625-3.0269775c0.3439941-1.0270081,2.4779968-7.2320251,2.7200012-7.9100037
				c0.2449951-0.6730042,1.026001-1.2200012,1.7420044-1.2200012h8.1289978c0.7149963,0,1.4830017,0.5489807,1.7119751,1.2259827
				l3.2120056,9.4140015c0.2270203,0.6759949-0.1589966,1.2920227-0.868988,1.375l-2.4379883,0.2799988v1.2960205h13.0089569
				v-1.2960205c0,0-0.0959473-0.0159912-1.5489502-0.3069763
				C261.1240234,122.5090027,260.7479858,121.8850098,259.2330322,117.428009z M245.4080048,96.1620026
				c0.1130066-0.3040009,0.2890015-0.3040009,0.3919983,0.0039978l3.8900146,11.4059906
				c0.2339783,0.6790161-0.1620178,1.2260132-0.8780212,1.2260132h-6.7079773c-0.7170105,0-1.098999-0.5440063-0.8530273-1.2160034
				C243.0690155,102.5920105,244.8280182,97.7610016,245.4080048,96.1620026z M295.7390137,91.7379913
				c-2.4240112-1.4899902-6.1630249-2.0429993-10.4609985-2.0429993l-12.4660034,0.003006v1.2870026l1.2520142,0.1920013
				c2.2479858,0.3410034,2.506958,1.2419891,2.506958,5.772995v20.1909943c0,4.5310059-0.2589722,5.0690002-2.506958,5.65802
				l-1.2520142,0.3069763v1.2960205h13.1929932v-1.2960205l-1.2529907-0.3069763
				c-2.25-0.5890198-2.507019-1.1270142-2.507019-5.65802v-5.5390015c0-0.9360046,0.367981-1.3329773,1.1110229-1.3329773
				c0.4890137,0,2.4779663,0.0099792,3.7059937-0.0610046c3.5269775-0.2120056,5.7490234-0.9070129,7.9949951-2.0800171
				c2.3380127-1.2219849,5.3519897-3.7829895,5.3519897-8.5479889
				C300.4089966,95.9779968,298.1829834,93.2440033,295.7390137,91.7379913z M287.1699829,108.3850098
				c-0.8869629,0.1679993-1.7659912,0.1919861-2.55896,0.1919861h-1.2550049c-0.743042,0-1.1110229-0.3970032-1.1110229-1.3330078
				V92.7910004c0-1.4290009,1.2030029-1.5070038,3.9219971-1.5070038c5.4869995,0,8.0360107,3.2669983,8.0360107,8.3509979
				C294.2030029,104.1579895,293.1619873,107.2630005,287.1699829,108.3850098z"/>
		</defs>
		<clipPath id="SVGID_14_">
			<use xlink:href="#SVGID_13_"  style="overflow:visible;"/>
		</clipPath>
		
			<linearGradient id="SVGID_15_" gradientUnits="userSpaceOnUse" x1="-87.4035263" y1="563.6880493" x2="-86.4035263" y2="563.6880493" gradientTransform="matrix(0 -35.1189995 -35.1189995 0 20007.0292969 -2944.7104492)">
			<stop  offset="0" style="stop-color:#AD802B"/>
			<stop  offset="0.3" style="stop-color:#B88B28"/>
			<stop  offset="1" style="stop-color:#D7B42D"/>
		</linearGradient>
		<rect x="121.3280182" y="89.6949692" class="st4" width="179.0810089" height="35.1190109"/>
		
			<linearGradient id="SVGID_16_" gradientUnits="userSpaceOnUse" x1="-87.4035263" y1="563.6880493" x2="-86.4035263" y2="563.6880493" gradientTransform="matrix(0 -35.1189995 -35.1189995 0 20007.0292969 -2944.7104492)">
			<stop  offset="0" style="stop-color:#AD802B"/>
			<stop  offset="0.290909" style="stop-color:#B88B28"/>
			<stop  offset="1" style="stop-color:#D7B42D"/>
		</linearGradient>
		<rect x="121.3280182" y="89.6949692" class="st5" width="179.0810089" height="35.1190109"/>
	</g>
	<path class="st6" d="M155.0180206,249.5939941c-1.8520203,0.9569702-3.78302,1.6549988-5.7980042,2.0799866
		c-2.0110168,0.4379883-4.0650024,0.6539917-6.1560059,0.6539917c-2.2279968,0-4.2810059-0.3519897-6.1600037-1.0559998
		c-1.8770142-0.697998-3.5010071-1.6849976-4.8659973-2.9889832c-1.3710022-1.3010254-2.4389954-2.8850098-3.2030029-4.7320251
		c-0.7650146-1.8559875-1.1480103-3.9179993-1.1480103-6.1919861c0-2.2879944,0.3829956-4.3580017,1.1480103-6.2059937
		c0.7640076-1.848999,1.8320007-3.4309998,3.2030029-4.7310181c1.3649902-1.2979736,2.9889832-2.3009949,4.8659973-2.993988
		c1.8789978-0.7000122,3.9320068-1.0490112,6.1600037-1.0490112c2.2810059,0,4.3779907,0.2750244,6.2989807,0.8250122
		c1.9160156,0.54599,3.6000061,1.4960022,5.0510254,2.8380127l-4.4290161,4.8299866
		c-0.8569946-0.8880005-1.8240051-1.552002-2.894989-2.0140076c-1.072998-0.4530029-2.4169922-0.6789856-4.026001-0.6789856
		c-1.3430176,0-2.5570068,0.2259827-3.6440125,0.6789856c-1.0859985,0.4620056-2.0180054,1.0960083-2.79599,1.9170227
		c-0.7780151,0.8099976-1.3770142,1.7849731-1.7900085,2.9109802c-0.4169922,1.132019-0.625,2.3529968-0.625,3.6730042
		c0,1.3359985,0.2080078,2.5660095,0.625,3.6759949c0.4129944,1.1180115,1.0119934,2.0800171,1.7900085,2.8950195
		c0.7779846,0.8239746,1.7099915,1.4559937,2.79599,1.9169922c1.0870056,0.4519958,2.3009949,0.6809998,3.6440125,0.6809998
		c1.3659973,0,2.5469971-0.1539917,3.5400085-0.4570007c0.9949951-0.3099976,1.7859802-0.6329956,2.3779907-0.9530029v-4.6319885
		h-5.1130066v-5.7890015h11.1490173V249.5939941"/>
	<path class="st6" d="M165.0379791,223.1090088h11.0310059c1.4490051,0,2.821991,0.1429749,4.1220093,0.4229736
		c1.3019714,0.2790222,2.4429932,0.7470093,3.4239807,1.4020081c0.9769897,0.6620178,1.7550049,1.5410156,2.3309937,2.6549988
		c0.5780029,1.1140137,0.8710022,2.507019,0.8710022,4.1669922c0,2.0130005-0.5239868,3.7210083-1.5740051,5.1360168
		c-1.0439758,1.4100037-2.5749817,2.2919922-4.5849915,2.6759949l7.2409973,12.0329895h-7.5239868l-5.9580078-11.394989h-3.1009827
		v11.394989h-6.2780151V223.1090088 M171.3159943,234.8980103h3.7059937c0.5629883,0,1.1589966-0.0220032,1.7909851-0.0640259
		c0.631012-0.0350037,1.2019958-0.1600037,1.7109985-0.3580017c0.5079956-0.2059937,0.9320068-0.519989,1.2660217-0.9459839
		c0.3339844-0.428009,0.5019836-1.0370178,0.5019836-1.8170166c0-0.7189941-0.1489868-1.302002-0.4419861-1.7289734
		c-0.2960205-0.4260254-0.6710205-0.7580261-1.1240234-0.9850159c-0.4599915-0.2290039-0.9830017-0.381012-1.5739746-0.4609985
		c-0.5890198-0.07901-1.1650085-0.118988-1.7270203-0.118988h-4.1089783V234.8980103z"/>
	<path class="st6" d="M194.0980072,237.3590088c0-2.2880249,0.3869934-4.3580017,1.1499939-6.2060242
		c0.7630005-1.848999,1.8299866-3.4309998,3.1990051-4.7309875c1.367981-1.2980042,2.9899902-2.3009949,4.8699951-2.993988
		c1.8789978-0.7000122,3.9309998-1.0490112,6.1579895-1.0490112c2.2270203,0,4.276001,0.348999,6.1589966,1.0490112
		c1.8750305,0.6929932,3.5000305,1.6959839,4.8680115,2.993988c1.3699951,1.2999878,2.4339905,2.8819885,3.1990051,4.7309875
		c0.7659912,1.8480225,1.1499939,3.9179993,1.1499939,6.2060242c0,2.2739868-0.3840027,4.3359985-1.1499939,6.1919861
		c-0.7650146,1.8469849-1.82901,3.4309998-3.1990051,4.7319946c-1.367981,1.3040161-2.992981,2.2910156-4.8680115,2.9890137
		c-1.8829956,0.7039795-3.9319763,1.0559998-6.1589966,1.0559998c-2.2269897,0-4.2789917-0.3520203-6.1579895-1.0559998
		c-1.8800049-0.697998-3.5020142-1.6849976-4.8699951-2.9890137c-1.3690186-1.3009949-2.4360046-2.8850098-3.1990051-4.7319946
		C194.4850006,241.6950073,194.0980072,239.6329956,194.0980072,237.3590088 M200.6210175,237.3590088
		c0,1.3359985,0.2079773,2.565979,0.625,3.6759949c0.4089966,1.117981,1.0099792,2.0799866,1.7859802,2.894989
		c0.7829895,0.8240051,1.7140198,1.4559937,2.8000183,1.9169922c1.0879822,0.4519958,2.2999878,0.6809998,3.6429749,0.6809998
		c1.3420105,0,2.5559998-0.2290039,3.6410217-0.6809998c1.0879822-0.4609985,2.019989-1.0929871,2.7999878-1.9169922
		c0.7749939-0.8150024,1.3739929-1.7770081,1.7919922-2.894989c0.4110107-1.1100159,0.6230164-2.3399963,0.6230164-3.6759949
		c0-1.3200073-0.2120056-2.5410156-0.6230164-3.6730042c-0.4179993-1.1260071-1.0169983-2.1010132-1.7919922-2.9110107
		c-0.7799988-0.8210144-1.7120056-1.4549866-2.7999878-1.9169922c-1.085022-0.4530029-2.2990112-0.6790161-3.6410217-0.6790161
		c-1.3429871,0-2.5549927,0.2260132-3.6429749,0.6790161c-1.0859985,0.4620056-2.0170288,1.0959778-2.8000183,1.9169922
		c-0.776001,0.8099976-1.3769836,1.7850037-1.7859802,2.9110107
		C200.8289948,234.8179932,200.6210175,236.0390015,200.6210175,237.3590088z"/>
	<path class="st6" d="M257.6519775,240.6159973c0,1.6879883-0.2550049,3.243988-0.7620239,4.6629944
		c-0.5109863,1.4230042-1.2699738,2.6529846-2.2789764,3.7059937c-1.0039978,1.04599-2.2579956,1.8609924-3.7619934,2.4620056
		c-1.5010071,0.5879822-3.2319946,0.8809814-5.1889954,0.8809814c-1.9860229,0-3.7330017-0.2929993-5.2350159-0.8809814
		c-1.5019836-0.6010132-2.7579956-1.4160156-3.7590027-2.4620056c-1.0090027-1.053009-1.7659912-2.2829895-2.2769775-3.7059937
		c-0.5130005-1.4190063-0.7660217-2.9750061-0.7660217-4.6629944v-17.507019h6.2820129v17.2590027
		c0,0.8890076,0.1369934,1.7049866,0.4219971,2.4549866c0.2810059,0.7530212,0.6749878,1.3990173,1.1820068,1.9580078
		c0.5109863,0.5429993,1.1229858,0.980011,1.8339844,1.2900085c0.7109985,0.303009,1.4830017,0.4570007,2.3170166,0.4570007
		c0.8269958,0,1.5939941-0.1539917,2.2929993-0.4570007c0.6999817-0.3099976,1.3029785-0.7470093,1.8099976-1.2900085
		c0.5079956-0.5589905,0.9060059-1.2049866,1.1849976-1.9580078c0.2819824-0.75,0.4259949-1.565979,0.4259949-2.4549866v-17.2590027
		h6.2779999V240.6159973"/>
	<path class="st6" d="M267.9559937,223.1089783h10.5830078c1.4760132,0,2.8759766,0.1360168,4.1890259,0.3959961
		c1.3150024,0.2600098,2.4619751,0.7380066,3.4389648,1.3870239c0.9819946,0.6640015,1.7600098,1.5469971,2.335022,2.6579895
		c0.5780029,1.1159973,0.867981,2.5140076,0.867981,4.2059937c0,1.6650085-0.2700195,3.0620117-0.8040161,4.1920166
		c-0.5390015,1.1259766-1.2789917,2.0159912-2.2139893,2.6929932c-0.9389648,0.6659851-2.0579834,1.1459961-3.3430176,1.4289856
		c-1.2869873,0.2780151-2.6809692,0.4160156-4.1849976,0.4160156h-4.5909424v11.1149902h-6.2770386V223.1089783
		 M274.2330322,235.177002h4.1879883c0.5650024,0,1.105957-0.0550232,1.631958-0.1610107
		c0.5220337-0.1040039,0.9900513-0.2850037,1.4060059-0.5400085c0.4180298-0.2569885,0.7550049-0.6080017,1.0060425-1.0469971
		c0.2579956-0.447998,0.3829956-1.0010071,0.3829956-1.6730042c0-0.7219849-0.1669922-1.3099976-0.5020142-1.7489929
		c-0.335022-0.4440002-0.7659912-0.7869873-1.289978-1.0299988c-0.5220337-0.2420044-1.1060181-0.3919983-1.7490234-0.4590149
		c-0.6459961-0.065979-1.2639771-0.098999-1.8510132-0.098999h-3.2229614V235.177002z"/>
	<g>
		<defs>
			<path id="SVGID_17_" d="M155.0180206,249.5939941c-1.8520203,0.9570007-3.78302,1.6549988-5.7980042,2.0800171
				c-2.0110168,0.4379883-4.0650024,0.6539917-6.1560059,0.6539917c-2.2279968,0-4.2810059-0.3519897-6.1600037-1.0559998
				c-1.8770142-0.697998-3.5010071-1.6849976-4.8659973-2.9890137c-1.3710022-1.3009949-2.4389954-2.8849792-3.2030029-4.7319946
				c-0.7650146-1.8559875-1.1480103-3.9179993-1.1480103-6.1919861c0-2.2880249,0.3829956-4.3580017,1.1480103-6.2060242
				c0.7640076-1.848999,1.8320007-3.4309998,3.2030029-4.7309875c1.3649902-1.2980042,2.9889832-2.3009949,4.8659973-2.993988
				c1.8789978-0.7000122,3.9320068-1.0490112,6.1600037-1.0490112c2.2810059,0,4.3779907,0.2749939,6.2989807,0.8250122
				c1.9160156,0.54599,3.6000061,1.4960022,5.0510254,2.8379822l-4.4290161,4.8300171
				c-0.8569946-0.8880005-1.8240051-1.552002-2.894989-2.0140076c-1.072998-0.4530029-2.4169922-0.6790161-4.026001-0.6790161
				c-1.3430176,0-2.5570068,0.2260132-3.6440125,0.6790161c-1.0859985,0.4620056-2.0180054,1.0960083-2.79599,1.9169922
				c-0.7780151,0.8099976-1.3770142,1.7850037-1.7900085,2.9110107c-0.4169922,1.1319885-0.625,2.3529968-0.625,3.6730042
				c0,1.3359985,0.2080078,2.565979,0.625,3.6759949c0.4129944,1.117981,1.0119934,2.0799866,1.7900085,2.894989
				c0.7779846,0.8240051,1.7099915,1.4559937,2.79599,1.9169922c1.0870056,0.4520264,2.3009949,0.6809998,3.6440125,0.6809998
				c1.3659973,0,2.5469971-0.1539917,3.5400085-0.4570007c0.9949951-0.3099976,1.7859802-0.6329956,2.3779907-0.9529724v-4.632019
				h-5.1130066v-5.7890015h11.1490173V249.5939941"/>
		</defs>
		<clipPath id="SVGID_18_">
			<use xlink:href="#SVGID_17_"  style="overflow:visible;"/>
		</clipPath>
		
			<linearGradient id="SVGID_19_" gradientUnits="userSpaceOnUse" x1="-87.419632" y1="563.7511597" x2="-86.419632" y2="563.7511597" gradientTransform="matrix(161.6829987 0 0 -161.6829987 14261.9550781 91386.3359375)">
			<stop  offset="0" style="stop-color:#9C702F"/>
			<stop  offset="0.1122053" style="stop-color:#A4792F"/>
			<stop  offset="0.295097" style="stop-color:#B9912E"/>
			<stop  offset="0.5" style="stop-color:#D7B42D"/>
			<stop  offset="0.704903" style="stop-color:#B9912E"/>
			<stop  offset="0.8877947" style="stop-color:#A4792F"/>
			<stop  offset="1" style="stop-color:#9C702F"/>
		</linearGradient>
		<rect x="127.6869965" y="222.3789978" class="st7" width="27.3309937" height="29.9490051"/>
	</g>
	<g>
		<defs>
			<path id="SVGID_20_" d="M165.0380096,223.1090088h11.0310059c1.4490051,0,2.821991,0.1429749,4.1219788,0.4230042
				c1.302002,0.2789917,2.4430237,0.7469788,3.4240112,1.4019775c0.9769897,0.6620178,1.7550049,1.5410156,2.3309937,2.6549988
				c0.5780029,1.1140137,0.8710022,2.507019,0.8710022,4.1670227c0,2.0130005-0.5239868,3.7209778-1.5740051,5.1359863
				c-1.0439758,1.4100037-2.5749817,2.2919922-4.5849915,2.6759949l7.2409973,12.03302h-7.5239868l-5.9580078-11.3950195h-3.1010132
				v11.3950195h-6.2779846V223.1090088 M171.3159943,234.8980103h3.7060242c0.5629883,0,1.1589966-0.0220032,1.7909851-0.0640259
				c0.631012-0.0349731,1.2019958-0.1599731,1.7109985-0.3579712c0.5079956-0.2060242,0.9320068-0.5200195,1.2659912-0.9460144
				c0.3340149-0.428009,0.5020142-1.0369873,0.5020142-1.8169861c0-0.7190247-0.1489868-1.302002-0.4420166-1.7290039
				c-0.29599-0.4260254-0.67099-0.7579956-1.1239929-0.9850159c-0.4599915-0.2290039-0.9830017-0.3809814-1.5740051-0.4609985
				c-0.5889893-0.07901-1.164978-0.118988-1.7269897-0.118988h-4.1090088V234.8980103z"/>
		</defs>
		<clipPath id="SVGID_21_">
			<use xlink:href="#SVGID_20_"  style="overflow:visible;"/>
		</clipPath>
		
			<linearGradient id="SVGID_22_" gradientUnits="userSpaceOnUse" x1="-87.419632" y1="563.7511597" x2="-86.419632" y2="563.7511597" gradientTransform="matrix(161.6829987 0 0 -161.6829987 14261.9550781 91386.3359375)">
			<stop  offset="0" style="stop-color:#9C702F"/>
			<stop  offset="0.1122053" style="stop-color:#A4792F"/>
			<stop  offset="0.295097" style="stop-color:#B9912E"/>
			<stop  offset="0.5" style="stop-color:#D7B42D"/>
			<stop  offset="0.704903" style="stop-color:#B9912E"/>
			<stop  offset="0.8877947" style="stop-color:#A4792F"/>
			<stop  offset="1" style="stop-color:#9C702F"/>
		</linearGradient>
		<rect x="165.0379791" y="223.1090088" class="st8" width="22.8609924" height="28.4919739"/>
	</g>
	<g>
		<defs>
			<path id="SVGID_23_" d="M194.0980072,237.3590088c0-2.2880249,0.3869934-4.3580017,1.1499939-6.2060242
				c0.7630005-1.848999,1.8300171-3.4309998,3.1990051-4.7309875c1.3680115-1.2980042,2.9899902-2.3009949,4.8699951-2.993988
				c1.8789978-0.7000122,3.9309998-1.0490112,6.1579895-1.0490112c2.2270203,0,4.276001,0.348999,6.1590271,1.0490112
				c1.875,0.6929932,3.5,1.6959839,4.867981,2.993988c1.3699951,1.2999878,2.434021,2.8819885,3.1990051,4.7309875
				c0.7659912,1.8480225,1.1499939,3.9179993,1.1499939,6.2060242c0,2.2739868-0.3840027,4.3359985-1.1499939,6.1919861
				c-0.7649841,1.8470154-1.82901,3.4309998-3.1990051,4.7319946c-1.367981,1.3040161-2.992981,2.2910156-4.867981,2.9890137
				c-1.8830261,0.70401-3.9320068,1.0559998-6.1590271,1.0559998c-2.2269897,0-4.2789917-0.3519897-6.1579895-1.0559998
				c-1.8800049-0.697998-3.5019836-1.6849976-4.8699951-2.9890137c-1.368988-1.3009949-2.4360046-2.8849792-3.1990051-4.7319946
				C194.4850006,241.6950073,194.0980072,239.6329956,194.0980072,237.3590088 M200.6210175,237.3590088
				c0,1.3359985,0.2079773,2.565979,0.625,3.6759949c0.4089966,1.117981,1.0099792,2.0799866,1.7859802,2.894989
				c0.78302,0.8240051,1.7140198,1.4559937,2.8000183,1.9169922c1.0879822,0.4520264,2.2999878,0.6809998,3.6429749,0.6809998
				c1.3420105,0,2.5559998-0.2289734,3.6410217-0.6809998c1.0879822-0.4609985,2.019989-1.0929871,2.7999878-1.9169922
				c0.7749939-0.8150024,1.3739929-1.7770081,1.7919922-2.894989c0.4110107-1.1100159,0.6230164-2.3399963,0.6230164-3.6759949
				c0-1.3200073-0.2120056-2.5410156-0.6230164-3.6730042c-0.4179993-1.1260071-1.0169983-2.1010132-1.7919922-2.9110107
				c-0.7799988-0.8209839-1.7120056-1.4549866-2.7999878-1.9169922c-1.085022-0.4530029-2.2990112-0.6790161-3.6410217-0.6790161
				c-1.3429871,0-2.5549927,0.2260132-3.6429749,0.6790161c-1.0859985,0.4620056-2.0169983,1.0960083-2.8000183,1.9169922
				c-0.776001,0.8099976-1.3769836,1.7850037-1.7859802,2.9110107
				C200.8289948,234.8179932,200.6210175,236.0390015,200.6210175,237.3590088z"/>
		</defs>
		<clipPath id="SVGID_24_">
			<use xlink:href="#SVGID_23_"  style="overflow:visible;"/>
		</clipPath>
		
			<linearGradient id="SVGID_25_" gradientUnits="userSpaceOnUse" x1="-87.419632" y1="563.7511597" x2="-86.419632" y2="563.7511597" gradientTransform="matrix(161.6829987 0 0 -161.6829987 14261.9550781 91386.3359375)">
			<stop  offset="0" style="stop-color:#9C702F"/>
			<stop  offset="0.1122053" style="stop-color:#A4792F"/>
			<stop  offset="0.295097" style="stop-color:#B9912E"/>
			<stop  offset="0.5" style="stop-color:#D7B42D"/>
			<stop  offset="0.704903" style="stop-color:#B9912E"/>
			<stop  offset="0.8877947" style="stop-color:#A4792F"/>
			<stop  offset="1" style="stop-color:#9C702F"/>
		</linearGradient>
		<rect x="194.0980072" y="222.3789978" class="st9" width="30.7529907" height="29.9490051"/>
	</g>
	<g>
		<defs>
			<path id="SVGID_26_" d="M257.6519775,240.6159973c0,1.6879883-0.2549438,3.243988-0.7619629,4.6629944
				c-0.5109863,1.4230042-1.2700043,2.6530151-2.279007,3.7059937c-1.0039978,1.0460205-2.2579956,1.8610229-3.7619934,2.4620056
				c-1.5010071,0.5880127-3.2319946,0.881012-5.1889954,0.881012c-1.9860229,0-3.7330017-0.2929993-5.2350159-0.881012
				c-1.5019836-0.6009827-2.7579956-1.4159851-3.7590027-2.4620056c-1.0090027-1.0529785-1.7659912-2.2829895-2.2770081-3.7059937
				c-0.5130005-1.4190063-0.7659912-2.9750061-0.7659912-4.6629944v-17.5069885h6.2820129v17.2590027
				c0,0.8889771,0.1369934,1.7049866,0.4219971,2.4549866c0.2810059,0.7529907,0.6749878,1.3989868,1.1820068,1.9580078
				c0.5109863,0.5429993,1.1229858,0.9799805,1.8339844,1.289978c0.7109985,0.303009,1.4830017,0.4570007,2.3170166,0.4570007
				c0.8269958,0,1.5939941-0.1539917,2.2929993-0.4570007c0.6999817-0.3099976,1.3029785-0.7469788,1.8099976-1.289978
				c0.5079956-0.559021,0.9059753-1.2050171,1.1849976-1.9580078c0.2819824-0.75,0.4259949-1.5660095,0.4259949-2.4549866
				v-17.2590027h6.2779694V240.6159973"/>
		</defs>
		<clipPath id="SVGID_27_">
			<use xlink:href="#SVGID_26_"  style="overflow:visible;"/>
		</clipPath>
		
			<linearGradient id="SVGID_28_" gradientUnits="userSpaceOnUse" x1="-87.419632" y1="563.7489014" x2="-86.419632" y2="563.7489014" gradientTransform="matrix(161.6829987 0 0 -161.6829987 14261.9550781 91386.3359375)">
			<stop  offset="0" style="stop-color:#9C702F"/>
			<stop  offset="0.1122053" style="stop-color:#A4792F"/>
			<stop  offset="0.295097" style="stop-color:#B9912E"/>
			<stop  offset="0.5" style="stop-color:#D7B42D"/>
			<stop  offset="0.704903" style="stop-color:#B9912E"/>
			<stop  offset="0.8877947" style="stop-color:#A4792F"/>
			<stop  offset="1" style="stop-color:#9C702F"/>
		</linearGradient>
		<rect x="233.6229706" y="223.1090088" class="st10" width="24.0289917" height="29.2189941"/>
	</g>
	<g>
		<defs>
			<path id="SVGID_29_" d="M267.9559937,223.1090088h10.5830078c1.4760132,0,2.8759766,0.1359863,4.1890259,0.3959961
				c1.3150024,0.2599792,2.4619751,0.7380066,3.4389648,1.3869934c0.9819946,0.6640015,1.7600098,1.5469971,2.335022,2.6579895
				c0.5780029,1.1159973,0.867981,2.5140076,0.867981,4.2060242c0,1.664978-0.2700195,3.0619812-0.8040161,4.1919861
				c-0.5390015,1.1260071-1.2789917,2.0159912-2.2139893,2.6929932c-0.9389648,0.6660156-2.0579834,1.1459961-3.3429565,1.4290161
				c-1.2870483,0.2779846-2.6810303,0.4159851-4.1849976,0.4159851h-4.5910034v11.1150208h-6.2770386V223.1090088
				 M274.2330322,235.177002h4.1879883c0.5650024,0,1.105957-0.0549927,1.631958-0.1610107
				c0.5220337-0.1040039,0.9900513-0.2850037,1.4060059-0.539978c0.4180298-0.257019,0.7550049-0.6080017,1.0060425-1.0470276
				c0.2579956-0.447998,0.3829956-1.0009766,0.3829956-1.6729736c0-0.7220154-0.1669922-1.3100281-0.5020142-1.7490234
				c-0.335022-0.4440002-0.7659912-0.7869873-1.289978-1.0299988c-0.5220337-0.2420044-1.1060181-0.3919983-1.7490234-0.4589844
				c-0.6459961-0.0660095-1.2639771-0.098999-1.8510132-0.098999h-3.2229614V235.177002z"/>
		</defs>
		<clipPath id="SVGID_30_">
			<use xlink:href="#SVGID_29_"  style="overflow:visible;"/>
		</clipPath>
		
			<linearGradient id="SVGID_31_" gradientUnits="userSpaceOnUse" x1="-87.419632" y1="563.7511597" x2="-86.419632" y2="563.7511597" gradientTransform="matrix(161.6829987 0 0 -161.6829987 14261.9550781 91386.3359375)">
			<stop  offset="0" style="stop-color:#9C702F"/>
			<stop  offset="0.1122053" style="stop-color:#A4792F"/>
			<stop  offset="0.295097" style="stop-color:#B9912E"/>
			<stop  offset="0.5" style="stop-color:#D7B42D"/>
			<stop  offset="0.704903" style="stop-color:#B9912E"/>
			<stop  offset="0.8877947" style="stop-color:#A4792F"/>
			<stop  offset="1" style="stop-color:#9C702F"/>
		</linearGradient>
		<rect x="267.9559937" y="223.1090088" class="st11" width="21.414032" height="28.4919739"/>
	</g>
</g>
</svg>
