<?xml version="1.0" encoding="utf-8"?>
<!-- Generator: Adobe Illustrator 16.0.3, SVG Export Plug-In . SVG Version: 6.00 Build 0)  -->
<!DOCTYPE svg PUBLIC "-//W3C//DTD SVG 1.1//EN" "http://www.w3.org/Graphics/SVG/1.1/DTD/svg11.dtd">
<svg version="1.1" id="Logo" xmlns="http://www.w3.org/2000/svg" xmlns:xlink="http://www.w3.org/1999/xlink" x="0px" y="0px"
	 width="820px" height="312px" viewBox="0 0 820 312" enable-background="new 0 0 820 312" xml:space="preserve">
<rect x="-191.457" y="374" display="none" width="458.915" height="312"/>
<g>
	<g>
		<g>
			<defs>
				<path id="SVGID_1_" d="M242.573,123.483c0,26.48,43.603,53.115,98.838,67.662c-33.691-3.536-126.298-26.475-126.298-67.662
					c0-28.16,62.23-57.435,103.949-69.832C281.589,70.507,242.569,95.872,242.573,123.483"/>
			</defs>
			<clipPath id="SVGID_2_">
				<use xlink:href="#SVGID_1_"  overflow="visible"/>
			</clipPath>
			
				<linearGradient id="SVGID_3_" gradientUnits="userSpaceOnUse" x1="-87.9504" y1="-251.1541" x2="-86.9504" y2="-251.1541" gradientTransform="matrix(0 -137.494 137.494 0 34810.3555 -11901.5361)">
				<stop  offset="0" style="stop-color:#9C702F"/>
				<stop  offset="0.1122" style="stop-color:#A4792F"/>
				<stop  offset="0.2951" style="stop-color:#B9912E"/>
				<stop  offset="0.5" style="stop-color:#D7B42D"/>
				<stop  offset="0.5143" style="stop-color:#D4B02D"/>
				<stop  offset="0.6383" style="stop-color:#BB932E"/>
				<stop  offset="0.7615" style="stop-color:#AA7F2F"/>
				<stop  offset="0.8829" style="stop-color:#A0722F"/>
				<stop  offset="1" style="stop-color:#9C6E2F"/>
			</linearGradient>
			<rect x="215.113" y="53.651" clip-path="url(#SVGID_2_)" fill="url(#SVGID_3_)" width="126.298" height="137.494"/>
		</g>
	</g>
	<g>
		<g>
			<defs>
				<path id="SVGID_4_" d="M256.036,123.483c0,40.712,99.852,71.972,187.447,87.052c-90.644-25.824-159.76-54.808-159.76-87.052
					c0-34.749,42.395-65.777,94.233-88.428c0,0-121.919,35.72-121.919,88.428H256.036"/>
			</defs>
			<clipPath id="SVGID_5_">
				<use xlink:href="#SVGID_4_"  overflow="visible"/>
			</clipPath>
			
				<linearGradient id="SVGID_6_" gradientUnits="userSpaceOnUse" x1="-87.7307" y1="-251.1721" x2="-86.7307" y2="-251.1721" gradientTransform="matrix(-7.703976e-006 -175.479 175.479 -7.703976e-006 44425.2813 -15184.3008)">
				<stop  offset="0" style="stop-color:#9C702F"/>
				<stop  offset="0.1122" style="stop-color:#A4792F"/>
				<stop  offset="0.2951" style="stop-color:#B9912E"/>
				<stop  offset="0.5" style="stop-color:#D7B42D"/>
				<stop  offset="0.5143" style="stop-color:#D4B02D"/>
				<stop  offset="0.6383" style="stop-color:#BB932E"/>
				<stop  offset="0.7615" style="stop-color:#AA7F2F"/>
				<stop  offset="0.8829" style="stop-color:#A0722F"/>
				<stop  offset="1" style="stop-color:#9C6E2F"/>
			</linearGradient>
			<rect x="256.036" y="35.055" clip-path="url(#SVGID_5_)" fill="url(#SVGID_6_)" width="187.447" height="175.479"/>
		</g>
	</g>
	<g>
		<g>
			<defs>
				<path id="SVGID_7_" d="M576.458,123.483c0,26.48-43.603,53.115-98.836,67.662c33.687-3.536,126.296-26.475,126.296-67.662
					c0-28.16-62.229-57.435-103.949-69.832C537.439,70.507,576.461,95.872,576.458,123.483"/>
			</defs>
			<clipPath id="SVGID_8_">
				<use xlink:href="#SVGID_7_"  overflow="visible"/>
			</clipPath>
			
				<linearGradient id="SVGID_9_" gradientUnits="userSpaceOnUse" x1="-87.9504" y1="-251.3367" x2="-86.9504" y2="-251.3367" gradientTransform="matrix(0 -137.494 -137.494 0 -34016.4805 -11901.5361)">
				<stop  offset="0" style="stop-color:#9C702F"/>
				<stop  offset="0.1122" style="stop-color:#A4792F"/>
				<stop  offset="0.2951" style="stop-color:#B9912E"/>
				<stop  offset="0.5" style="stop-color:#D7B42D"/>
				<stop  offset="0.5143" style="stop-color:#D4B02D"/>
				<stop  offset="0.6383" style="stop-color:#BB932E"/>
				<stop  offset="0.7615" style="stop-color:#AA7F2F"/>
				<stop  offset="0.8829" style="stop-color:#A0722F"/>
				<stop  offset="1" style="stop-color:#9C6E2F"/>
			</linearGradient>
			<rect x="477.621" y="53.651" clip-path="url(#SVGID_8_)" fill="url(#SVGID_9_)" width="126.297" height="137.494"/>
		</g>
	</g>
	<g>
		<g>
			<defs>
				<path id="SVGID_10_" d="M563.927,123.483c0,40.712-99.851,71.972-187.446,87.052c90.646-25.824,159.76-54.808,159.76-87.052
					c0-34.749-42.397-65.777-94.234-88.428c0,0,121.919,35.72,121.919,88.428H563.927"/>
			</defs>
			<clipPath id="SVGID_11_">
				<use xlink:href="#SVGID_10_"  overflow="visible"/>
			</clipPath>
			
				<linearGradient id="SVGID_12_" gradientUnits="userSpaceOnUse" x1="-87.7307" y1="-251.3162" x2="-86.7307" y2="-251.3162" gradientTransform="matrix(7.703976e-006 -175.479 -175.479 -7.703976e-006 -43630.5313 -15184.3008)">
				<stop  offset="0" style="stop-color:#9C702F"/>
				<stop  offset="0.1122" style="stop-color:#A4792F"/>
				<stop  offset="0.2951" style="stop-color:#B9912E"/>
				<stop  offset="0.5" style="stop-color:#D7B42D"/>
				<stop  offset="0.5143" style="stop-color:#D4B02D"/>
				<stop  offset="0.6383" style="stop-color:#BB932E"/>
				<stop  offset="0.7615" style="stop-color:#AA7F2F"/>
				<stop  offset="0.8829" style="stop-color:#A0722F"/>
				<stop  offset="1" style="stop-color:#9C6E2F"/>
			</linearGradient>
			<rect x="376.481" y="35.055" clip-path="url(#SVGID_11_)" fill="url(#SVGID_12_)" width="187.446" height="175.479"/>
		</g>
	</g>
	<g>
		<g>
			<defs>
				<path id="SVGID_13_" d="M413.352,102.839c0.415-0.677,0.554-1.231,0.23-1.727c-0.346-0.53-0.861-0.468-2.21-0.488h-8.275
					c-1.949,0-4.093,0.373-5.472,1.908c-1.186,1.334-2.041,2.927-2.49,3.876l-1.458-0.389c0.631-2.101,1.135-3.931,2.016-7.301
					l26.882-0.004l0.58,0.885c-1.063,1.705-16.649,26.79-19.741,31.728c-0.399,0.642-1.188,1.887-0.613,2.836
					c0.403,0.663,1.355,0.793,2.381,0.793c1.493,0,3.63,0,7.655,0c1.423,0,3.801-0.216,5.644-1.558
					c1.56-1.133,2.658-2.793,3.633-5.024l1.401,0.38c-0.854,2.864-1.951,6.362-2.579,8.158H393.26l-0.58-0.926
					C393.684,134.37,412.295,104.563,413.352,102.839 M328.76,100.464c5.581,0,8.087,4.264,8.087,8.855
					c0,3.886-1.091,5.89-2.604,7.09c-1.676,1.246-3.567,1.489-5.674,1.489c-2.904,0-2.535-0.004-2.904-0.004
					c-0.816,0-1.22-0.437-1.22-1.464c0,0,0-12.312,0-14.14C324.445,100.55,325.767,100.464,328.76,100.464z M324.445,121.082
					c0-1.026,0.403-1.464,1.22-1.464c0.549,0,1.061,0,1.834,0c1.086,0,1.459,0.581,2.309,1.844c1.764,2.587,4.102,6.557,5.593,8.665
					c4.064,5.813,8.452,7.239,13.341,7.239c1.098,0,1.985-0.136,2.525-0.276v-0.842c-1.571-0.111-3.049-0.707-4.011-1.562
					c-3.911-3.319-7.384-8.498-11.979-15.943c-0.299-0.42-0.187-0.466,0.26-0.6c3.154-0.954,8.132-3.541,8.132-9.68
					c0-4.837-2.852-7.06-5.862-8.443c-2.716-1.245-6.033-1.302-9.559-1.302c-5.642,0-14.176,0-14.176,0v1.416l1.379,0.212
					c2.478,0.375,2.762,1.366,2.762,6.354v22.221c0,4.987-0.284,5.579-2.762,6.228l-1.379,0.338v1.426h14.512v-1.426l-1.38-0.338
					c-2.475-0.648-2.759-1.24-2.759-6.228V121.082z M366.14,128.921c0,4.987-0.287,5.579-2.76,6.228l-1.38,0.338v1.426h14.951
					v-1.426l-1.382-0.338c-2.475-0.648-2.761-1.24-2.761-6.228V106.7c0-4.987,0.286-5.979,2.761-6.354l1.382-0.204v-1.424h-14.951
					v1.416l1.38,0.212c2.473,0.375,2.76,1.366,2.76,6.354V128.921z M465.846,129.238l-10.405-30.519h-4.416
					c0,0-11.963,31.108-12.965,33.743c-0.377,0.98-0.988,2.089-2.746,2.521c-1.204,0.297-2.586,0.504-2.586,0.504v1.426h11.65
					v-1.426l-1.313-0.152c-1.971-0.226-2.843-0.182-1.789-3.331c0.379-1.13,2.728-7.959,2.994-8.705
					c0.27-0.741,1.129-1.343,1.917-1.343h8.946c0.787,0,1.632,0.604,1.884,1.349l3.535,10.361c0.25,0.744-0.175,1.422-0.956,1.513
					l-2.684,0.309v1.426h14.317v-1.426c0,0-0.105-0.018-1.704-0.338C467.927,134.829,467.513,134.143,465.846,129.238z
					 M450.631,105.833c0.125-0.335,0.318-0.335,0.432,0.004l4.281,12.553c0.258,0.748-0.178,1.35-0.966,1.35h-7.383
					c-0.789,0-1.21-0.599-0.938-1.338C448.056,112.909,449.993,107.593,450.631,105.833z M506.024,100.964
					c-2.668-1.64-6.783-2.249-11.514-2.249l-13.72,0.004v1.416l1.378,0.212c2.475,0.375,2.76,1.366,2.76,6.354v22.221
					c0,4.987-0.285,5.579-2.76,6.228l-1.378,0.338v1.426h14.52v-1.426l-1.379-0.338c-2.476-0.648-2.759-1.24-2.759-6.228v-6.096
					c0-1.03,0.405-1.467,1.223-1.467c0.538,0,2.728,0.011,4.079-0.067c3.882-0.233,6.327-0.998,8.799-2.289
					c2.573-1.345,5.891-4.163,5.891-9.407C511.164,105.63,508.714,102.621,506.024,100.964z M496.593,119.285
					c-0.976,0.185-1.943,0.211-2.815,0.211h-1.382c-0.817,0-1.223-0.437-1.223-1.467v-15.907c0-1.572,1.324-1.658,4.316-1.658
					c6.039,0,8.845,3.596,8.845,9.191C504.334,114.633,503.187,118.05,496.593,119.285z"/>
			</defs>
			<clipPath id="SVGID_14_">
				<use xlink:href="#SVGID_13_"  overflow="visible"/>
			</clipPath>
			
				<linearGradient id="SVGID_15_" gradientUnits="userSpaceOnUse" x1="-90.5549" y1="-250.9197" x2="-89.5549" y2="-250.9197" gradientTransform="matrix(0 -38.6508 38.6508 0 10110.8516 -3362.6526)">
				<stop  offset="0" style="stop-color:#AD802B"/>
				<stop  offset="0.3" style="stop-color:#B88B28"/>
				<stop  offset="1" style="stop-color:#D7B42D"/>
			</linearGradient>
			<rect x="314.072" y="98.715" clip-path="url(#SVGID_14_)" fill="url(#SVGID_15_)" width="197.092" height="38.651"/>
		</g>
		<g>
			<defs>
				<path id="SVGID_16_" d="M413.352,102.839c0.415-0.677,0.554-1.231,0.23-1.727c-0.346-0.53-0.861-0.468-2.21-0.488h-8.275
					c-1.949,0-4.093,0.373-5.472,1.908c-1.186,1.334-2.041,2.927-2.49,3.876l-1.458-0.389c0.631-2.101,1.135-3.931,2.016-7.301
					l26.882-0.004l0.58,0.885c-1.063,1.705-16.649,26.79-19.741,31.728c-0.399,0.642-1.188,1.887-0.613,2.836
					c0.403,0.663,1.355,0.793,2.381,0.793c1.493,0,3.63,0,7.655,0c1.423,0,3.801-0.216,5.644-1.558
					c1.56-1.133,2.658-2.793,3.633-5.024l1.401,0.38c-0.854,2.864-1.951,6.362-2.579,8.158H393.26l-0.58-0.926
					C393.684,134.37,412.295,104.563,413.352,102.839 M328.76,100.464c5.581,0,8.087,4.264,8.087,8.855
					c0,3.886-1.091,5.89-2.604,7.09c-1.676,1.246-3.567,1.489-5.674,1.489c-2.904,0-2.535-0.004-2.904-0.004
					c-0.816,0-1.22-0.437-1.22-1.464c0,0,0-12.312,0-14.14C324.445,100.55,325.767,100.464,328.76,100.464z M324.445,121.082
					c0-1.026,0.403-1.464,1.22-1.464c0.549,0,1.061,0,1.834,0c1.086,0,1.459,0.581,2.309,1.844c1.764,2.587,4.102,6.557,5.593,8.665
					c4.064,5.813,8.452,7.239,13.341,7.239c1.098,0,1.985-0.136,2.525-0.276v-0.842c-1.571-0.111-3.049-0.707-4.011-1.562
					c-3.911-3.319-7.384-8.498-11.979-15.943c-0.299-0.42-0.187-0.466,0.26-0.6c3.154-0.954,8.132-3.541,8.132-9.68
					c0-4.837-2.852-7.06-5.862-8.443c-2.716-1.245-6.033-1.302-9.559-1.302c-5.642,0-14.176,0-14.176,0v1.416l1.379,0.212
					c2.478,0.375,2.762,1.366,2.762,6.354v22.221c0,4.987-0.284,5.579-2.762,6.228l-1.379,0.338v1.426h14.512v-1.426l-1.38-0.338
					c-2.475-0.648-2.759-1.24-2.759-6.228V121.082z M366.14,128.921c0,4.987-0.287,5.579-2.76,6.228l-1.38,0.338v1.426h14.951
					v-1.426l-1.382-0.338c-2.475-0.648-2.761-1.24-2.761-6.228V106.7c0-4.987,0.286-5.979,2.761-6.354l1.382-0.204v-1.424h-14.951
					v1.416l1.38,0.212c2.473,0.375,2.76,1.366,2.76,6.354V128.921z M465.846,129.238l-10.405-30.519h-4.416
					c0,0-11.963,31.108-12.965,33.743c-0.377,0.98-0.988,2.089-2.746,2.521c-1.204,0.297-2.586,0.504-2.586,0.504v1.426h11.65
					v-1.426l-1.313-0.152c-1.971-0.226-2.843-0.182-1.789-3.331c0.379-1.13,2.728-7.959,2.994-8.705
					c0.27-0.741,1.129-1.343,1.917-1.343h8.946c0.787,0,1.632,0.604,1.884,1.349l3.535,10.361c0.25,0.744-0.175,1.422-0.956,1.513
					l-2.684,0.309v1.426h14.317v-1.426c0,0-0.105-0.018-1.704-0.338C467.927,134.829,467.513,134.143,465.846,129.238z
					 M450.631,105.833c0.125-0.335,0.318-0.335,0.432,0.004l4.281,12.553c0.258,0.748-0.178,1.35-0.966,1.35h-7.383
					c-0.789,0-1.21-0.599-0.938-1.338C448.056,112.909,449.993,107.593,450.631,105.833z M506.024,100.964
					c-2.668-1.64-6.783-2.249-11.514-2.249l-13.72,0.004v1.416l1.378,0.212c2.475,0.375,2.76,1.366,2.76,6.354v22.221
					c0,4.987-0.285,5.579-2.76,6.228l-1.378,0.338v1.426h14.52v-1.426l-1.379-0.338c-2.476-0.648-2.759-1.24-2.759-6.228v-6.096
					c0-1.03,0.405-1.467,1.223-1.467c0.538,0,2.728,0.011,4.079-0.067c3.882-0.233,6.327-0.998,8.799-2.289
					c2.573-1.345,5.891-4.163,5.891-9.407C511.164,105.63,508.714,102.621,506.024,100.964z M496.593,119.285
					c-0.976,0.185-1.943,0.211-2.815,0.211h-1.382c-0.817,0-1.223-0.437-1.223-1.467v-15.907c0-1.572,1.324-1.658,4.316-1.658
					c6.039,0,8.845,3.596,8.845,9.191C504.334,114.633,503.187,118.05,496.593,119.285z"/>
			</defs>
			<clipPath id="SVGID_17_">
				<use xlink:href="#SVGID_16_"  overflow="visible"/>
			</clipPath>
			
				<linearGradient id="SVGID_18_" gradientUnits="userSpaceOnUse" x1="-90.5549" y1="-250.9197" x2="-89.5549" y2="-250.9197" gradientTransform="matrix(0 -38.6508 38.6508 0 10110.8516 -3362.6526)">
				<stop  offset="0" style="stop-color:#AD802B"/>
				<stop  offset="0.2909" style="stop-color:#B88B28"/>
				<stop  offset="1" style="stop-color:#D7B42D"/>
			</linearGradient>
			<rect x="314.072" y="98.715" clip-path="url(#SVGID_17_)" fill="url(#SVGID_18_)" width="197.092" height="38.651"/>
		</g>
	</g>
	<path fill="#231815" d="M351.15,274.696c-2.038,1.053-4.163,1.821-6.381,2.289c-2.213,0.481-4.474,0.72-6.775,0.72
		c-2.452,0-4.711-0.388-6.779-1.162c-2.065-0.769-3.853-1.854-5.355-3.29c-1.509-1.432-2.684-3.175-3.524-5.208
		c-0.843-2.042-1.264-4.312-1.264-6.814c0-2.519,0.421-4.796,1.264-6.83c0.841-2.035,2.016-3.776,3.524-5.207
		c1.503-1.429,3.29-2.532,5.355-3.295c2.068-0.771,4.327-1.154,6.779-1.154c2.511,0,4.818,0.303,6.933,0.908
		c2.109,0.601,3.962,1.646,5.56,3.123l-4.875,5.315c-0.943-0.978-2.007-1.708-3.186-2.217c-1.182-0.498-2.66-0.747-4.432-0.747
		c-1.478,0-2.813,0.249-4.01,0.747c-1.195,0.509-2.222,1.207-3.077,2.11c-0.856,0.892-1.516,1.965-1.971,3.204
		c-0.459,1.245-0.688,2.589-0.688,4.042c0,1.471,0.229,2.824,0.688,4.046c0.455,1.23,1.114,2.289,1.971,3.186
		c0.855,0.907,1.882,1.603,3.077,2.11c1.196,0.497,2.532,0.749,4.01,0.749c1.504,0,2.804-0.169,3.896-0.503
		c1.095-0.341,1.966-0.696,2.617-1.049v-5.098h-5.627V258.3h12.27V274.696"/>
	<path fill="#231815" d="M362.178,245.546h12.14c1.595,0,3.106,0.158,4.537,0.466c1.433,0.308,2.688,0.822,3.769,1.543
		c1.075,0.729,1.931,1.696,2.565,2.922c0.636,1.227,0.958,2.76,0.958,4.586c0,2.216-0.576,4.096-1.732,5.653
		c-1.148,1.552-2.834,2.522-5.046,2.944l7.97,13.243h-8.281l-6.557-12.541h-3.413v12.541h-6.909V245.546 M369.088,258.521h4.078
		c0.62,0,1.276-0.023,1.972-0.07c0.694-0.038,1.322-0.176,1.883-0.394c0.56-0.227,1.025-0.572,1.394-1.041
		c0.367-0.472,0.553-1.142,0.553-2c0-0.791-0.164-1.433-0.486-1.903c-0.326-0.469-0.739-0.834-1.237-1.084
		c-0.507-0.252-1.082-0.419-1.732-0.507c-0.648-0.087-1.282-0.131-1.9-0.131h-4.522V258.521z"/>
	<path fill="#231815" d="M394.161,261.23c0-2.519,0.426-4.796,1.266-6.83c0.84-2.035,2.014-3.776,3.521-5.207
		c1.506-1.429,3.291-2.532,5.359-3.295c2.068-0.771,4.327-1.154,6.777-1.154c2.451,0,4.706,0.384,6.778,1.154
		c2.064,0.763,3.853,1.866,5.358,3.295c1.508,1.431,2.679,3.172,3.521,5.207c0.843,2.034,1.266,4.312,1.266,6.83
		c0,2.503-0.423,4.772-1.266,6.814c-0.842,2.033-2.013,3.776-3.521,5.208c-1.506,1.436-3.294,2.521-5.358,3.29
		c-2.072,0.774-4.327,1.162-6.778,1.162c-2.45,0-4.709-0.388-6.777-1.162c-2.068-0.769-3.854-1.854-5.359-3.29
		c-1.507-1.432-2.681-3.175-3.521-5.208C394.587,266.002,394.161,263.733,394.161,261.23 M401.34,261.23
		c0,1.471,0.229,2.824,0.688,4.046c0.45,1.23,1.112,2.289,1.966,3.186c0.862,0.907,1.887,1.603,3.082,2.11
		c1.197,0.497,2.531,0.749,4.009,0.749s2.813-0.252,4.008-0.749c1.197-0.508,2.223-1.203,3.081-2.11
		c0.854-0.896,1.513-1.955,1.973-3.186c0.452-1.222,0.686-2.575,0.686-4.046c0-1.453-0.233-2.797-0.686-4.042
		c-0.46-1.239-1.119-2.313-1.973-3.204c-0.858-0.903-1.884-1.602-3.081-2.11c-1.194-0.498-2.53-0.747-4.008-0.747
		s-2.812,0.249-4.009,0.747c-1.195,0.509-2.22,1.207-3.082,2.11c-0.854,0.892-1.516,1.965-1.966,3.204
		C401.568,258.433,401.34,259.777,401.34,261.23z"/>
	<path fill="#231815" d="M464.106,264.815c0,1.857-0.28,3.569-0.839,5.132c-0.563,1.565-1.397,2.92-2.508,4.078
		c-1.104,1.151-2.485,2.049-4.141,2.71c-1.651,0.647-3.557,0.97-5.711,0.97c-2.186,0-4.108-0.322-5.761-0.97
		c-1.653-0.661-3.036-1.559-4.138-2.71c-1.11-1.158-1.943-2.513-2.506-4.078c-0.564-1.563-0.843-3.274-0.843-5.132v-19.269h6.914
		v18.995c0,0.979,0.15,1.877,0.464,2.702c0.31,0.828,0.743,1.539,1.301,2.154c0.563,0.598,1.236,1.079,2.019,1.42
		c0.782,0.334,1.632,0.503,2.55,0.503c0.91,0,1.755-0.169,2.524-0.503c0.77-0.341,1.434-0.822,1.991-1.42
		c0.56-0.615,0.997-1.326,1.305-2.154c0.311-0.825,0.469-1.724,0.469-2.702v-18.995h6.909V264.815"/>
	<path fill="#231815" d="M475.447,245.546h11.646c1.625,0,3.166,0.15,4.61,0.437c1.447,0.286,2.71,0.812,3.785,1.526
		c1.081,0.73,1.938,1.702,2.57,2.925c0.636,1.229,0.955,2.768,0.955,4.629c0,1.833-0.298,3.37-0.885,4.614
		c-0.594,1.239-1.408,2.219-2.437,2.964c-1.034,0.732-2.266,1.261-3.68,1.572c-1.416,0.306-2.95,0.458-4.605,0.458h-5.053v12.232
		h-6.908V245.546 M482.355,258.828h4.608c0.622,0,1.218-0.061,1.797-0.178c0.574-0.114,1.089-0.313,1.547-0.594
		c0.46-0.283,0.831-0.669,1.107-1.152c0.284-0.493,0.422-1.102,0.422-1.842c0-0.794-0.185-1.441-0.553-1.925
		c-0.369-0.488-0.843-0.866-1.42-1.133c-0.574-0.267-1.217-0.432-1.925-0.506c-0.711-0.072-1.391-0.108-2.037-0.108h-3.547V258.828z
		"/>
	<g>
		<g>
			<defs>
				<path id="SVGID_19_" d="M351.15,274.696c-2.038,1.053-4.163,1.821-6.381,2.289c-2.213,0.481-4.474,0.72-6.775,0.72
					c-2.452,0-4.711-0.388-6.779-1.162c-2.065-0.769-3.853-1.854-5.355-3.29c-1.509-1.432-2.684-3.175-3.524-5.208
					c-0.843-2.042-1.264-4.312-1.264-6.814c0-2.519,0.421-4.796,1.264-6.83c0.841-2.035,2.016-3.776,3.524-5.207
					c1.503-1.429,3.29-2.532,5.355-3.295c2.068-0.771,4.327-1.154,6.779-1.154c2.511,0,4.818,0.303,6.933,0.908
					c2.109,0.601,3.962,1.646,5.56,3.123l-4.875,5.315c-0.943-0.978-2.007-1.708-3.186-2.217c-1.182-0.498-2.66-0.747-4.432-0.747
					c-1.478,0-2.813,0.249-4.01,0.747c-1.195,0.509-2.222,1.207-3.077,2.11c-0.856,0.892-1.516,1.965-1.971,3.204
					c-0.459,1.245-0.688,2.589-0.688,4.042c0,1.471,0.229,2.824,0.688,4.046c0.455,1.23,1.114,2.289,1.971,3.186
					c0.855,0.907,1.882,1.603,3.077,2.11c1.196,0.497,2.532,0.749,4.01,0.749c1.504,0,2.804-0.169,3.896-0.503
					c1.095-0.341,1.966-0.696,2.617-1.049v-5.098h-5.627V258.3h12.27V274.696"/>
			</defs>
			<clipPath id="SVGID_20_">
				<use xlink:href="#SVGID_19_"  overflow="visible"/>
			</clipPath>
			
				<linearGradient id="SVGID_21_" gradientUnits="userSpaceOnUse" x1="-86.8611" y1="-250.4578" x2="-85.8611" y2="-250.4578" gradientTransform="matrix(177.9431 0 0 177.9431 15777.4473 44828.4766)">
				<stop  offset="0" style="stop-color:#9C702F"/>
				<stop  offset="0.1122" style="stop-color:#A4792F"/>
				<stop  offset="0.2951" style="stop-color:#B9912E"/>
				<stop  offset="0.5" style="stop-color:#D7B42D"/>
				<stop  offset="0.7049" style="stop-color:#B9912E"/>
				<stop  offset="0.8878" style="stop-color:#A4792F"/>
				<stop  offset="1" style="stop-color:#9C702F"/>
			</linearGradient>
			<rect x="321.071" y="244.743" clip-path="url(#SVGID_20_)" fill="url(#SVGID_21_)" width="30.079" height="32.961"/>
		</g>
	</g>
	<g>
		<g>
			<defs>
				<path id="SVGID_22_" d="M362.178,245.546h12.14c1.595,0,3.106,0.158,4.537,0.466c1.433,0.308,2.688,0.822,3.769,1.543
					c1.075,0.729,1.931,1.696,2.565,2.922c0.636,1.227,0.958,2.76,0.958,4.586c0,2.216-0.576,4.096-1.732,5.653
					c-1.148,1.552-2.834,2.522-5.046,2.944l7.97,13.243h-8.281l-6.557-12.541h-3.413v12.541h-6.909V245.546 M369.088,258.521h4.078
					c0.62,0,1.276-0.023,1.972-0.07c0.694-0.038,1.323-0.176,1.883-0.394c0.56-0.227,1.026-0.572,1.394-1.041
					c0.367-0.472,0.553-1.142,0.553-2c0-0.791-0.164-1.433-0.486-1.903c-0.326-0.469-0.739-0.834-1.237-1.084
					c-0.507-0.252-1.082-0.419-1.732-0.507c-0.648-0.087-1.282-0.131-1.9-0.131h-4.522V258.521z"/>
			</defs>
			<clipPath id="SVGID_23_">
				<use xlink:href="#SVGID_22_"  overflow="visible"/>
			</clipPath>
			
				<linearGradient id="SVGID_24_" gradientUnits="userSpaceOnUse" x1="-86.8611" y1="-250.4578" x2="-85.8611" y2="-250.4578" gradientTransform="matrix(177.9431 0 0 177.9431 15777.4473 44828.4766)">
				<stop  offset="0" style="stop-color:#9C702F"/>
				<stop  offset="0.1122" style="stop-color:#A4792F"/>
				<stop  offset="0.2951" style="stop-color:#B9912E"/>
				<stop  offset="0.5" style="stop-color:#D7B42D"/>
				<stop  offset="0.7049" style="stop-color:#B9912E"/>
				<stop  offset="0.8878" style="stop-color:#A4792F"/>
				<stop  offset="1" style="stop-color:#9C702F"/>
			</linearGradient>
			<rect x="362.178" y="245.546" clip-path="url(#SVGID_23_)" fill="url(#SVGID_24_)" width="25.16" height="31.357"/>
		</g>
	</g>
	<g>
		<g>
			<defs>
				<path id="SVGID_25_" d="M394.161,261.23c0-2.519,0.426-4.796,1.266-6.83c0.84-2.035,2.014-3.776,3.521-5.207
					c1.506-1.429,3.291-2.532,5.359-3.295c2.068-0.771,4.327-1.154,6.777-1.154c2.451,0,4.706,0.384,6.778,1.154
					c2.064,0.763,3.853,1.866,5.358,3.295c1.508,1.431,2.679,3.172,3.521,5.207c0.843,2.034,1.266,4.312,1.266,6.83
					c0,2.503-0.423,4.772-1.266,6.814c-0.842,2.033-2.013,3.776-3.521,5.208c-1.506,1.436-3.294,2.521-5.358,3.29
					c-2.072,0.774-4.327,1.162-6.778,1.162c-2.45,0-4.709-0.388-6.777-1.162c-2.068-0.769-3.854-1.854-5.359-3.29
					c-1.507-1.432-2.681-3.175-3.521-5.208C394.587,266.002,394.161,263.733,394.161,261.23 M401.34,261.23
					c0,1.471,0.229,2.824,0.688,4.046c0.45,1.23,1.112,2.289,1.966,3.186c0.862,0.907,1.887,1.603,3.082,2.11
					c1.197,0.497,2.531,0.749,4.009,0.749s2.813-0.252,4.008-0.749c1.197-0.508,2.223-1.203,3.081-2.11
					c0.854-0.896,1.513-1.955,1.973-3.186c0.452-1.222,0.686-2.575,0.686-4.046c0-1.453-0.233-2.797-0.686-4.042
					c-0.46-1.239-1.119-2.313-1.973-3.204c-0.858-0.903-1.884-1.602-3.081-2.11c-1.194-0.498-2.53-0.747-4.008-0.747
					s-2.812,0.249-4.009,0.747c-1.195,0.509-2.22,1.207-3.082,2.11c-0.854,0.892-1.516,1.965-1.966,3.204
					C401.568,258.433,401.34,259.777,401.34,261.23z"/>
			</defs>
			<clipPath id="SVGID_26_">
				<use xlink:href="#SVGID_25_"  overflow="visible"/>
			</clipPath>
			
				<linearGradient id="SVGID_27_" gradientUnits="userSpaceOnUse" x1="-86.8611" y1="-250.4578" x2="-85.8611" y2="-250.4578" gradientTransform="matrix(177.9431 0 0 177.9431 15777.4473 44828.4766)">
				<stop  offset="0" style="stop-color:#9C702F"/>
				<stop  offset="0.1122" style="stop-color:#A4792F"/>
				<stop  offset="0.2951" style="stop-color:#B9912E"/>
				<stop  offset="0.5" style="stop-color:#D7B42D"/>
				<stop  offset="0.7049" style="stop-color:#B9912E"/>
				<stop  offset="0.8878" style="stop-color:#A4792F"/>
				<stop  offset="1" style="stop-color:#9C702F"/>
			</linearGradient>
			<rect x="394.161" y="244.743" clip-path="url(#SVGID_26_)" fill="url(#SVGID_27_)" width="33.846" height="32.961"/>
		</g>
	</g>
	<g>
		<g>
			<defs>
				<path id="SVGID_28_" d="M464.106,264.815c0,1.857-0.28,3.569-0.839,5.132c-0.562,1.565-1.397,2.92-2.508,4.078
					c-1.104,1.151-2.485,2.049-4.141,2.71c-1.651,0.647-3.557,0.97-5.711,0.97c-2.186,0-4.108-0.322-5.761-0.97
					c-1.653-0.661-3.036-1.559-4.138-2.71c-1.11-1.158-1.943-2.513-2.506-4.078c-0.564-1.563-0.843-3.274-0.843-5.132v-19.269h6.914
					v18.995c0,0.979,0.15,1.877,0.464,2.702c0.31,0.828,0.743,1.539,1.301,2.154c0.563,0.598,1.236,1.079,2.019,1.42
					c0.782,0.334,1.633,0.503,2.55,0.503c0.91,0,1.755-0.169,2.524-0.503c0.77-0.341,1.434-0.822,1.991-1.42
					c0.56-0.615,0.997-1.326,1.305-2.154c0.311-0.825,0.469-1.724,0.469-2.702v-18.995h6.909V264.815"/>
			</defs>
			<clipPath id="SVGID_29_">
				<use xlink:href="#SVGID_28_"  overflow="visible"/>
			</clipPath>
			
				<linearGradient id="SVGID_30_" gradientUnits="userSpaceOnUse" x1="-86.8611" y1="-250.4553" x2="-85.8611" y2="-250.4553" gradientTransform="matrix(177.9431 0 0 177.9431 15777.4473 44828.4766)">
				<stop  offset="0" style="stop-color:#9C702F"/>
				<stop  offset="0.1122" style="stop-color:#A4792F"/>
				<stop  offset="0.2951" style="stop-color:#B9912E"/>
				<stop  offset="0.5" style="stop-color:#D7B42D"/>
				<stop  offset="0.7049" style="stop-color:#B9912E"/>
				<stop  offset="0.8878" style="stop-color:#A4792F"/>
				<stop  offset="1" style="stop-color:#9C702F"/>
			</linearGradient>
			<rect x="437.661" y="245.546" clip-path="url(#SVGID_29_)" fill="url(#SVGID_30_)" width="26.445" height="32.158"/>
		</g>
	</g>
	<g>
		<g>
			<defs>
				<path id="SVGID_31_" d="M475.447,245.546h11.646c1.625,0,3.166,0.15,4.61,0.437c1.447,0.286,2.71,0.812,3.785,1.526
					c1.081,0.73,1.938,1.702,2.57,2.925c0.636,1.229,0.955,2.768,0.955,4.629c0,1.833-0.298,3.37-0.885,4.614
					c-0.594,1.239-1.408,2.219-2.437,2.964c-1.034,0.732-2.266,1.261-3.68,1.572c-1.416,0.306-2.95,0.458-4.605,0.458h-5.053v12.232
					h-6.908V245.546 M482.355,258.828h4.608c0.622,0,1.218-0.061,1.797-0.178c0.574-0.114,1.089-0.313,1.547-0.594
					c0.46-0.283,0.831-0.669,1.107-1.152c0.284-0.493,0.422-1.102,0.422-1.842c0-0.794-0.185-1.441-0.553-1.925
					c-0.369-0.488-0.843-0.866-1.42-1.133c-0.574-0.267-1.217-0.432-1.925-0.506c-0.711-0.072-1.391-0.108-2.037-0.108h-3.547
					V258.828z"/>
			</defs>
			<clipPath id="SVGID_32_">
				<use xlink:href="#SVGID_31_"  overflow="visible"/>
			</clipPath>
			
				<linearGradient id="SVGID_33_" gradientUnits="userSpaceOnUse" x1="-86.8611" y1="-250.4578" x2="-85.8611" y2="-250.4578" gradientTransform="matrix(177.9431 0 0 177.9431 15777.4473 44828.4766)">
				<stop  offset="0" style="stop-color:#9C702F"/>
				<stop  offset="0.1122" style="stop-color:#A4792F"/>
				<stop  offset="0.2951" style="stop-color:#B9912E"/>
				<stop  offset="0.5" style="stop-color:#D7B42D"/>
				<stop  offset="0.7049" style="stop-color:#B9912E"/>
				<stop  offset="0.8878" style="stop-color:#A4792F"/>
				<stop  offset="1" style="stop-color:#9C702F"/>
			</linearGradient>
			<rect x="475.447" y="245.546" clip-path="url(#SVGID_32_)" fill="url(#SVGID_33_)" width="23.567" height="31.357"/>
		</g>
	</g>
</g>
</svg>
